<svg width="13" height="16" viewBox="0 0 13 16" fill="none" xmlns="http://www.w3.org/2000/svg">
<path d="M11.7942 3.5858L11.7943 3.58594C11.8753 3.66509 11.9397 3.75963 11.9836 3.864C12.0275 3.96834 12.0502 4.0804 12.0502 4.1936C12.0502 4.19363 12.0502 4.19366 12.0502 4.19369V11.2C12.0502 11.4254 11.9606 11.6416 11.8012 11.801C11.6418 11.9604 11.4256 12.05 11.2002 12.05H4.8002C4.57476 12.05 4.35856 11.9604 4.19916 11.801C4.03975 11.6416 3.9502 11.4254 3.9502 11.2V1.6C3.9502 1.37457 4.03975 1.15837 4.19915 0.998959C4.35856 0.839553 4.57476 0.75 4.8002 0.75H8.5481C8.54813 0.75 8.54816 0.75 8.5482 0.75C8.77023 0.750052 8.98343 0.836983 9.1422 0.992201C9.14222 0.992217 9.14224 0.992234 9.14225 0.99225L11.7942 3.5858Z" stroke="#7C7786" stroke-width="1.5" stroke-linecap="round" stroke-linejoin="round"/>
<mask id="path-2-inside-1_214_4316" fill="white">
<path d="M9.6 12.8V14.4C9.6 14.8243 9.43143 15.2313 9.13137 15.5314C8.83131 15.8314 8.42435 16 8 16H1.6C1.17565 16 0.768687 15.8314 0.468629 15.5314C0.168571 15.2313 0 14.8243 0 14.4V5.6C0 5.17565 0.168571 4.76869 0.468629 4.46863C0.768687 4.16857 1.17565 4 1.6 4H3.2"/>
</mask>
<path d="M11.1 12.8C11.1 11.9716 10.4284 11.3 9.6 11.3C8.77157 11.3 8.1 11.9716 8.1 12.8H11.1ZM0 14.4H-1.5H0ZM1.6 4V2.5V4ZM3.2 5.5C4.02843 5.5 4.7 4.82843 4.7 4C4.7 3.17157 4.02843 2.5 3.2 2.5V5.5ZM8.1 12.8V14.4H11.1V12.8H8.1ZM8.1 14.4C8.1 14.4265 8.08947 14.452 8.07071 14.4707L10.192 16.592C10.7734 16.0107 11.1 15.2222 11.1 14.4H8.1ZM8.07071 14.4707C8.05196 14.4895 8.02652 14.5 8 14.5V17.5C8.82217 17.5 9.61067 17.1734 10.192 16.592L8.07071 14.4707ZM8 14.5H1.6V17.5H8V14.5ZM1.6 14.5C1.57348 14.5 1.54804 14.4895 1.52929 14.4707L-0.592031 16.592C-0.0106688 17.1734 0.777828 17.5 1.6 17.5V14.5ZM1.52929 14.4707C1.51054 14.452 1.5 14.4265 1.5 14.4H-1.5C-1.5 15.2222 -1.17339 16.0107 -0.592031 16.592L1.52929 14.4707ZM1.5 14.4V5.6H-1.5V14.4H1.5ZM1.5 5.6C1.5 5.57348 1.51054 5.54804 1.52929 5.52929L-0.592031 3.40797C-1.17339 3.98933 -1.5 4.77783 -1.5 5.6H1.5ZM1.52929 5.52929C1.54804 5.51054 1.57348 5.5 1.6 5.5V2.5C0.777829 2.5 -0.0106681 2.82661 -0.592031 3.40797L1.52929 5.52929ZM1.6 5.5H3.2V2.5H1.6V5.5Z" fill="#7C7786" mask="url(#path-2-inside-1_214_4316)"/>
</svg>
