<svg width="24" height="20" viewBox="0 0 24 20" fill="none" xmlns="http://www.w3.org/2000/svg">
<path d="M21 7.46992V3.25C20.9993 2.65347 20.762 2.08157 20.3402 1.65976C19.9184 1.23795 19.3465 1.00068 18.75 1H5.25C4.65347 1.00068 4.08157 1.23795 3.65976 1.65976C3.23795 2.08157 3.00068 2.65347 3 3.25V7.46992C2.35643 7.63704 1.78646 8.01287 1.37931 8.53855C0.97217 9.06423 0.750848 9.71009 0.75 10.375V15.625C0.750447 16.0227 0.908625 16.404 1.18983 16.6852C1.47104 16.9664 1.85231 17.1246 2.25 17.125H3V19.375H4.5V17.125H19.5V19.375H21V17.125H21.75C22.1477 17.1246 22.529 16.9664 22.8102 16.6852C23.0914 16.404 23.2496 16.0227 23.25 15.625V10.375C23.2492 9.71009 23.0278 9.06423 22.6207 8.53855C22.2135 8.01287 21.6436 7.63704 21 7.46992ZM5.25 15.625H2.25V10.375C2.25 9.97718 2.40804 9.59564 2.68934 9.31434C2.97064 9.03304 3.35218 8.875 3.75 8.875C4.14782 8.875 4.52936 9.03304 4.81066 9.31434C5.09196 9.59564 5.25 9.97718 5.25 10.375V15.625ZM17.25 15.625H6.75V11.125H17.25V15.625ZM17.3449 9.625H6.65508C6.52004 9.10656 6.24913 8.63353 5.8703 8.2547C5.49147 7.87587 5.01844 7.60496 4.5 7.46992V3.25C4.50024 3.05116 4.57933 2.86053 4.71993 2.71993C4.86053 2.57933 5.05116 2.50024 5.25 2.5H18.75C18.9488 2.50024 19.1395 2.57933 19.2801 2.71993C19.4207 2.86053 19.4998 3.05116 19.5 3.25V7.46992C18.9816 7.60496 18.5085 7.87587 18.1297 8.2547C17.7509 8.63353 17.48 9.10656 17.3449 9.625ZM21.75 15.625H18.75V10.375C18.75 9.97718 18.908 9.59564 19.1893 9.31434C19.4706 9.03304 19.8522 8.875 20.25 8.875C20.6478 8.875 21.0294 9.03304 21.3107 9.31434C21.592 9.59564 21.75 9.97718 21.75 10.375L21.7509 15.625H21.75Z" fill="#4D4C4D" stroke="#4D4C4D" stroke-width="0.5"/>
</svg>
