<svg width="249" height="80" viewBox="0 0 249 80" fill="none" xmlns="http://www.w3.org/2000/svg">
<path d="M2.68115 21.6954H20.9082V16.6919H2.68115V21.6954ZM34.4397 63.4507H40.0389L28.4236 18.1214H22.884L34.4397 63.4507ZM44.0023 66.965H72.0572V61.8424H44.0023V66.965ZM89.2396 67.2031L93.3498 63.0935C87.0954 58.1494 82.5687 50.8228 82.5687 40.4584C82.5687 30.0941 87.0954 22.8271 93.3498 17.8236L89.2396 13.7136C82.2109 18.9554 76.5524 27.9497 76.5524 40.4584C76.5524 52.9672 82.2109 61.9616 89.2396 67.2031ZM121.532 15.6793L116.945 17.228C118.435 20.3254 121.83 29.558 122.782 32.9532L127.429 31.345C126.416 28.0093 122.842 18.5384 121.532 15.6793ZM147.979 19.4914L142.499 17.9428C141.308 26.8776 137.674 36.408 132.968 42.4241C126.952 50.0485 118.077 55.7668 109.559 58.2685L113.669 62.4381C122.068 59.4598 130.884 53.3246 137.018 45.2237C141.903 38.7907 145.119 30.2728 146.906 22.8867C147.145 21.9337 147.561 20.504 147.979 19.4914ZM104.913 19.2532L100.207 20.9806C101.637 23.5419 105.747 33.6084 106.879 37.3015L111.584 35.5741C110.214 31.7023 106.462 22.5888 104.913 19.2532ZM158.998 67.2031C166.087 61.9616 171.686 52.9672 171.686 40.4584C171.686 27.9497 166.087 18.9554 158.998 13.7136L154.888 17.8236C161.202 22.8271 165.67 30.0941 165.67 40.4584C165.67 50.8228 161.202 58.1494 154.888 63.0935L158.998 67.2031ZM176.161 66.965H204.216V61.8424H176.161V66.965ZM208.293 63.4507H213.893L225.27 18.1214H219.79L208.293 63.4507ZM229.653 21.6954H247.88V16.6919H229.653V21.6954Z" fill="#7C7786"/>
</svg>
